<?xml version="1.0" standalone="no"?>
<!DOCTYPE svg PUBLIC "-//W3C//DTD SVG 20010904//EN"
 "http://www.w3.org/TR/2001/REC-SVG-20010904/DTD/svg10.dtd">
<svg version="1.0" xmlns="http://www.w3.org/2000/svg"
 width="241.000000pt" height="241.000000pt" viewBox="0 0 241.000000 241.000000"
 preserveAspectRatio="xMidYMid meet">
<metadata>
Created by potrace 1.14, written by Peter Selinger 2001-2017
</metadata>
<g transform="translate(0.000000,241.000000) scale(0.100000,-0.100000)"
fill="#000000" stroke="none">
<path d="M1075 2360 c-645 -67 -1124 -641 -1064 -1277 18 -203 85 -388 199
-559 66 -98 211 -243 308 -307 103 -69 261 -142 377 -173 93 -26 114 -28 300
-28 176 -1 211 2 290 22 741 188 1121 987 790 1659 -167 339 -470 571 -845
646 -98 20 -255 27 -355 17z m52 -248 c123 -63 181 -226 108 -302 -14 -14 -25
-36 -25 -49 0 -42 -18 -61 -58 -61 -21 0 -47 7 -60 15 -19 14 -25 14 -53 0
-17 -9 -44 -17 -59 -17 -30 -1 -80 25 -80 42 0 6 -24 10 -54 10 -30 0 -57 4
-60 9 -3 4 6 19 19 31 22 21 23 25 11 39 -70 77 -21 223 95 284 47 25 62 28
114 24 33 -2 79 -14 102 -25z m534 -513 c66 -42 103 -104 101 -172 -1 -33 -8
-60 -21 -78 -11 -14 -24 -42 -29 -60 -8 -33 -10 -34 -53 -31 -74 4 -93 3 -132
-4 -32 -5 -42 -2 -63 17 -17 16 -35 23 -57 21 -18 -1 -39 2 -47 7 -12 8 -12
13 4 30 17 18 17 21 2 43 -27 39 -21 116 14 172 62 97 180 120 281 55z m246
-625 c60 -35 86 -76 91 -145 4 -48 1 -60 -17 -78 -11 -11 -21 -31 -21 -43 0
-40 -14 -51 -51 -44 -41 9 -73 9 -119 1 -28 -5 -39 -2 -54 14 -13 14 -31 21
-56 21 -45 0 -55 8 -35 30 14 15 14 20 0 46 -21 40 -19 80 6 131 23 47 47 67
107 89 46 17 94 10 149 -22z"/>
</g>
</svg>
